<?xml version="1.0" encoding="utf-8"?>
<!-- Generator: Adobe Illustrator 21.0.1, SVG Export Plug-In . SVG Version: 6.00 Build 0)  -->
<svg version="1.1" id="Layer_1" xmlns="http://www.w3.org/2000/svg" xmlns:xlink="http://www.w3.org/1999/xlink" x="0px" y="0px"
	 viewBox="0 0 44 44" style="enable-background:new 0 0 44 44;" xml:space="preserve">
<style type="text/css">
	.st0{fill:#292C44;}
</style>
<g>
	<path class="st0" d="M18.6,20c1.2,1.6,2,2.1,2.4,2.2c1,0.5,2.4-0.3,2.3-0.4c-0.3-0.4-1.3-1.6-2.7-3.7c0.6-0.5,1.2-1.1,1.8-1.6
		c3.9-3.4,7.1-5.6,8.8-7.4c0.7-0.8,1-2,0.4-3.1c-0.3-0.6-1.5-2.3-2.3-3.2c0,0-0.6,1.6-9.4,10.6c-0.5,0.5-0.9,0.9-1.3,1.4
		c-0.1-0.2-0.2-0.3-0.3-0.5c-2.9-5.5-2.5-5.8-3.5-6.1c-1.9-0.6-3.1,0.5-3.2,0.5c0.6,0.8,1.2,1.3,4.1,6.6c0.3,0.5,0.6,1,0.8,1.5
		C7.4,26.8,5.9,30,6,31c0,0.7,0.8,0.7,1.1,0.6C7.7,30.3,13.2,24.9,18.6,20"/>
	<path class="st0" d="M37.5,16.6c-0.5-0.9-1.3-1.9-2.4-2.6c0,0-0.6,1.2-5.8,5.5C17.8,29.1,9.8,36.1,9.9,37.7c0,0,0.4,2.2,1.1,2.9
		c0.7,0.7,0.9,0.3,3.2-0.1c11.5-2,15.7-0.9,16.3-0.9c0,0,1.3-1.4-1.8-5.4c-2.6-0.8-13.4,3.3-13.4,3.3s0.1-1.2,17.6-14.2
		C38.8,18.9,38.4,18.2,37.5,16.6"/>
</g>
</svg>
