<?xml version="1.0" encoding="UTF-8"?>
<svg width="350px" height="93px" viewBox="0 0 350 93" version="1.1" xmlns="http://www.w3.org/2000/svg" xmlns:xlink="http://www.w3.org/1999/xlink">
    <!-- Generator: Sketch 47.1 (45422) - http://www.bohemiancoding.com/sketch -->
    <title>lynx</title>
    <desc>Created with Sketch.</desc>
    <defs>
        <polygon id="path-1" points="8.83558824 0.0528967254 17.575 0.0528967254 17.575 22.7779177 0.0961764706 22.7779177 0.0961764706 0.0528967254 8.83558824 0.0528967254"></polygon>
    </defs>
    <g id="Page-1" stroke="none" stroke-width="1" fill="none" fill-rule="evenodd">
        <g id="logo-collection" transform="translate(-545.000000, -668.000000)">
            <g id="lynx" transform="translate(545.000000, 668.000000)">
                <path d="M305.617828,0 L297.103275,22.0403023 L300.073863,22.0403023 L302.524451,15.4024923 L311.777213,15.4024923 L314.162708,22.0403023 L317.380353,22.0403023 L308.831774,0 L305.617828,0 Z M307.147503,2.65467669 L307.208158,2.65467669 L310.85852,12.9341872 L303.443144,12.9341872 L307.147503,2.65467669 Z" id="Fill-1" fill="#231F20"></path>
                <polygon id="Fill-2" fill="#231F20" points="313.853904 0 313.853904 2.4690506 321.202225 2.4690506 321.202225 22.0403023 324.136334 22.0403023 324.136334 2.4690506 331.486146 2.4690506 331.486146 0"></polygon>
                <g id="Group-18">
                    <g id="Group-5" transform="translate(332.352941, 0.000000)">
                        <mask id="mask-2" fill="white">
                            <use xlink:href="#path-1"></use>
                        </mask>
                        <g id="Clip-4"></g>
                        <path d="M12.2307353,3.53526448 C11.2652941,2.8365869 10.0329412,2.48761545 8.52926471,2.48761545 C7.92338235,2.48761545 7.32338235,2.54638959 6.73220588,2.66761125 C6.14691176,2.78883291 5.62411765,2.99307305 5.16676471,3.27665827 C4.70941176,3.56024349 4.3425,3.9422754 4.06897059,4.41834593 C3.79397059,4.89588581 3.66161765,5.48950462 3.66161765,6.19846767 C3.66161765,6.86628883 3.85647059,7.40994962 4.25352941,7.8243073 C4.64838235,8.24233837 5.17558824,8.58102435 5.83514706,8.8447733 C6.49544118,9.10852225 7.24176471,9.32672124 8.07338235,9.4986356 C8.905,9.67128463 9.75352941,9.8586272 10.6175,10.0606633 C11.4807353,10.2649034 12.3277941,10.5036734 13.1579412,10.7777078 C13.9925,11.0502729 14.7366176,11.4212846 15.3976471,11.8870697 C16.0542647,12.3535894 16.5844118,12.9420655 16.9792647,13.6517632 C17.3741176,14.361461 17.5755882,15.2540932 17.5755882,16.3281906 C17.5755882,17.4853065 17.3167647,18.4734467 16.7983824,19.2948153 C16.2785294,20.1161839 15.6160294,20.7847397 14.8035294,21.3026868 C13.9925,21.8206339 13.0829412,22.1945844 12.0770588,22.4274769 C11.0726471,22.6611041 10.0719118,22.7779177 9.07558824,22.7779177 C7.86308824,22.7779177 6.70794118,22.6265743 5.62411765,22.3209488 C4.53661765,22.0167926 3.58147059,21.5554156 2.76161765,20.9375525 C1.93735294,20.31822 1.28955882,19.5284425 0.811617647,18.5645466 C0.336617647,17.6013854 0.0961764706,16.4604324 0.0961764706,15.1424223 L2.83735294,15.1424223 C2.83735294,16.0541562 3.01602941,16.840995 3.37044118,17.5 C3.72191176,18.1582704 4.1925,18.7011965 4.77191176,19.1280437 C5.34911765,19.5519521 6.02338235,19.8671285 6.79176471,20.0706339 C7.56602941,20.2734047 8.35794118,20.3740554 9.17264706,20.3740554 C9.81823529,20.3740554 10.4726471,20.3130772 11.1358824,20.1918556 C11.7939706,20.0706339 12.3866176,19.8627204 12.9167647,19.5688497 C13.4439706,19.274979 13.8697059,18.8745802 14.1917647,18.3661839 C14.5160294,17.8607263 14.6814706,17.211272 14.6814706,16.4192905 C14.6814706,15.6691856 14.4844118,15.0608732 14.0873529,14.5943535 C13.6888235,14.1270991 13.1652941,13.7480059 12.5042647,13.4534005 C11.8417647,13.1602645 11.0976471,12.9207599 10.2682353,12.7378254 C9.43441176,12.5556255 8.58588235,12.368283 7.72411765,12.1757976 C6.86161765,11.984047 6.01529412,11.7599706 5.18,11.5065071 C4.34985294,11.2537783 3.60279412,10.9180311 2.94544118,10.5036734 C2.28294118,10.0871117 1.75720588,9.5493283 1.36014706,8.89032326 C0.965294118,8.2320529 0.766029412,7.40480688 0.766029412,6.41005458 C0.766029412,5.31538623 0.990294118,4.36912259 1.43588235,3.56612091 C1.88294118,2.76532326 2.47411765,2.10631822 3.21676471,1.58910579 C3.95720588,1.07189337 4.80205882,0.687657431 5.74397059,0.432724601 C6.68955882,0.179995802 7.65720588,0.0528967254 8.65279412,0.0528967254 C9.76676471,0.0528967254 10.8035294,0.184403862 11.7601471,0.448152813 C12.7108824,0.711167086 13.5483824,1.12846348 14.2719118,1.69563392 C14.9895588,2.26280437 15.5572059,2.97837951 15.9726471,3.84015533 C16.3902941,4.70119647 16.6182353,5.73194794 16.6616176,6.92800168 L13.9226471,6.92800168 C13.7572059,5.3668136 13.1939706,4.23541142 12.2307353,3.53526448" id="Fill-3" fill="#231F20" mask="url(#mask-2)"></path>
                    </g>
                    <polygon id="Fill-6" fill="#231F20" points="227.496691 12.1935034 255.066544 51.6596033 227.790809 92.5370172 207.942279 92.5370172 235.983456 50.5627309 210.196691 12.1935034"></polygon>
                    <polygon id="Fill-8" fill="#C2272D" points="258.106176 47.1086482 248.585588 33.4774559 261.665735 12.1938707 281.4025 12.1938707"></polygon>
                    <polygon id="Fill-10" fill="#C2272D" points="258.198824 56.1446579 283.623824 92.5368703 264.484853 92.5368703 249.471618 69.2358627"></polygon>
                    <polygon id="Fill-12" fill="#231F20" points="17.6936765 12.1594878 17.6936765 77.702204 56.9186765 77.702204 56.9186765 92.5691226 0.000294117647 92.5691226 0.000294117647 12.1594878"></polygon>
                    <polygon id="Fill-14" fill="#231F20" points="45.6435294 12.1594878 65.4817647 12.1594878 84.3038235 43.9173594 103.017059 12.1594878 122.740588 12.1594878 92.8736765 61.7149034 92.8736765 92.5691226 75.1780882 92.5691226 75.1780882 61.2594039"></polygon>
                    <polygon id="Fill-16" fill="#231F20" points="147.088971 12.1594878 180.670588 66.104597 180.9 66.104597 180.9 12.1594878 197.469118 12.1594878 197.469118 92.5691226 179.775 92.5691226 146.300735 38.7320109 146.076471 38.7320109 146.076471 92.5691226 129.505147 92.5691226 129.505147 12.1594878"></polygon>
                </g>
            </g>
        </g>
    </g>
</svg>