<?xml version="1.0" encoding="UTF-8"?>
<svg width="360px" height="76px" viewBox="0 0 360 76" version="1.1" xmlns="http://www.w3.org/2000/svg" xmlns:xlink="http://www.w3.org/1999/xlink">
    <!-- Generator: Sketch 47.1 (45422) - http://www.bohemiancoding.com/sketch -->
    <title>one-yonge</title>
    <desc>Created with Sketch.</desc>
    <defs></defs>
    <g id="Page-1" stroke="none" stroke-width="1" fill="none" fill-rule="evenodd">
        <g id="logo-collection" transform="translate(-540.000000, -2404.000000)" fill="#860B1A">
            <g id="one-yonge" transform="translate(540.000000, 2404.000000)">
                <path d="M84.4033,55.2114 L74.7973,55.2114 C74.4653,55.2114 74.1633,55.0164 74.0263,54.7134 L59.7823,23.0774 C59.4083,22.2474 58.1663,22.5144 58.1663,23.4244 L58.1663,54.3664 C58.1663,54.8334 57.7883,55.2114 57.3213,55.2114 L48.0133,55.2114 C47.5473,55.2114 47.1693,54.8334 47.1693,54.3664 L47.1693,1.5934 C47.1693,1.1264 47.5473,0.7484 48.0133,0.7484 L57.6203,0.7484 C57.9533,0.7484 58.2543,0.9424 58.3903,1.2454 L72.6743,32.9254 C73.0483,33.7544 74.2893,33.4874 74.2893,32.5774 L74.2893,1.5934 C74.2893,1.1264 74.6673,0.7484 75.1333,0.7484 L84.4033,0.7484 C84.8703,0.7484 85.2483,1.1264 85.2483,1.5934 L85.2483,54.3664 C85.2483,54.8334 84.8703,55.2114 84.4033,55.2114" id="Fill-1"></path>
                <path d="M121.3604,31.646 L105.9194,31.646 C105.4524,31.646 105.0744,32.024 105.0744,32.491 L105.0744,45.24 C105.0744,45.707 105.4524,46.084 105.9194,46.084 L124.5034,46.084 C124.9694,46.084 125.3474,46.463 125.3474,46.93 L125.3474,54.367 C125.3474,54.833 124.9694,55.211 124.5034,55.211 L94.9214,55.211 C94.4544,55.211 94.0764,54.833 94.0764,54.367 L94.0764,1.593 C94.0764,1.126 94.4544,0.749 94.9214,0.749 L124.4284,0.749 C124.8954,0.749 125.2734,1.126 125.2734,1.593 L125.2734,9.068 C125.2734,9.535 124.8954,9.913 124.4284,9.913 L105.9194,9.913 C105.4524,9.913 105.0744,10.292 105.0744,10.758 L105.0744,21.935 C105.0744,22.402 105.4524,22.781 105.9194,22.781 L121.3604,22.781 C121.8274,22.781 122.2054,23.159 122.2054,23.625 L122.2054,30.8 C122.2054,31.267 121.8274,31.646 121.3604,31.646" id="Fill-3"></path>
                <path d="M166.5459,22.8237 L173.7449,1.3247 C173.8599,0.9797 174.1839,0.7487 174.5469,0.7487 L184.6369,0.7487 C185.2399,0.7487 185.6499,1.3637 185.4149,1.9207 L171.3869,35.3037 C171.3429,35.4077 171.3199,35.5187 171.3199,35.6317 L171.3199,54.3667 C171.3199,54.8337 170.9419,55.2117 170.4759,55.2117 L161.0179,55.2117 C160.5509,55.2117 160.1729,54.8337 160.1729,54.3667 L160.1729,35.6317 C160.1729,35.5187 160.1499,35.4077 160.1069,35.3027 L146.0409,1.9217 C145.8069,1.3647 146.2159,0.7487 146.8199,0.7487 L156.9099,0.7487 C157.2739,0.7487 157.5959,0.9797 157.7109,1.3237 L164.9429,22.8247 C165.2009,23.5937 166.2879,23.5927 166.5459,22.8237" id="Fill-5"></path>
                <path d="M217.1055,23.7534 C217.1055,18.8404 216.4065,15.1874 215.0095,12.7934 C213.6135,10.3994 211.4435,9.2014 208.5015,9.2014 C205.5845,9.2014 203.4255,10.3564 202.0305,12.6624 C200.6325,14.9694 199.9105,18.4794 199.8615,23.1914 L199.8615,32.8804 C199.8615,37.6444 200.5715,41.1534 201.9925,43.4094 C203.4145,45.6674 205.6085,46.7944 208.5765,46.7944 C211.4435,46.7944 213.5765,45.6904 214.9725,43.4834 C216.3695,41.2774 217.0805,37.8554 217.1055,33.2174 L217.1055,23.7534 Z M228.1395,32.8804 C228.1395,40.1874 226.4125,45.8594 222.9595,49.8994 C219.5045,53.9394 214.7105,55.9594 208.5765,55.9594 C202.4665,55.9594 197.6665,53.9584 194.1745,49.9564 C190.6835,45.9534 188.9135,40.3494 188.8635,33.1424 L188.8635,23.8274 C188.8635,16.3474 190.5955,10.5054 194.0625,6.3034 C197.5295,2.1014 202.3415,0.0004 208.5015,0.0004 C214.5605,0.0004 219.3355,2.0644 222.8285,6.1914 C226.3185,10.3184 228.0895,16.1094 228.1395,23.5664 L228.1395,32.8804 Z" id="Fill-7"></path>
                <path d="M273.2676,55.2114 L263.6616,55.2114 C263.3296,55.2114 263.0276,55.0164 262.8906,54.7134 L248.6466,23.0774 C248.2726,22.2464 247.0306,22.5144 247.0306,23.4244 L247.0306,54.3664 C247.0306,54.8334 246.6526,55.2114 246.1856,55.2114 L236.8776,55.2114 C236.4116,55.2114 236.0336,54.8334 236.0336,54.3664 L236.0336,1.5934 C236.0336,1.1264 236.4116,0.7484 236.8776,0.7484 L246.4846,0.7484 C246.8166,0.7484 247.1186,0.9424 247.2546,1.2454 L261.5376,32.9244 C261.9116,33.7544 263.1526,33.4874 263.1526,32.5774 L263.1526,1.5934 C263.1526,1.1264 263.5306,0.7484 263.9966,0.7484 L273.2676,0.7484 C273.7346,0.7484 274.1126,1.1264 274.1126,1.5934 L274.1126,54.3664 C274.1126,54.8334 273.7346,55.2114 273.2676,55.2114" id="Fill-9"></path>
                <path d="M319.9727,48.6938 C319.9727,48.9158 319.8887,49.1308 319.7357,49.2918 C317.6597,51.4608 315.1377,53.1028 312.1727,54.2198 C309.0927,55.3808 305.7207,55.9598 302.0547,55.9598 C295.7947,55.9598 290.9317,54.0208 287.4667,50.1428 C283.9997,46.2648 282.2167,40.6238 282.1177,33.2168 L282.1177,23.4168 C282.1177,15.9108 283.7557,10.1308 287.0357,6.0788 C290.3147,2.0268 295.0977,0.0008 301.3807,0.0008 C307.2907,0.0008 311.7477,1.4598 314.7537,4.3768 C317.6077,7.1468 319.3207,11.4148 319.8917,17.1758 C319.9407,17.6718 319.5427,18.1048 319.0457,18.1048 L310.0367,18.1048 C309.6037,18.1048 309.2457,17.7698 309.1987,17.3388 C308.8637,14.2888 308.1637,12.1798 307.1047,11.0158 C305.9567,9.7568 304.1617,9.1278 301.7177,9.1278 C298.7497,9.1278 296.5937,10.2128 295.2457,12.3808 C293.9007,14.5508 293.2017,18.0058 293.1527,22.7428 L293.1527,32.6188 C293.1527,37.5818 293.8937,41.1908 295.3767,43.4468 C296.8617,45.7048 299.2987,46.8328 302.6907,46.8328 C304.8597,46.8328 306.6187,46.3958 307.9647,45.5228 L308.5737,45.1018 C308.8017,44.9448 308.9377,44.6848 308.9377,44.4068 L308.9377,35.7078 C308.9377,35.2408 308.5597,34.8628 308.0927,34.8628 L302.0767,34.8628 C301.6097,34.8628 301.2317,34.4838 301.2317,34.0168 L301.2317,27.4028 C301.2317,26.9368 301.6097,26.5578 302.0767,26.5578 L319.1277,26.5578 C319.5947,26.5578 319.9727,26.9368 319.9727,27.4028 L319.9727,48.6938 Z" id="Fill-11"></path>
                <path d="M355.0371,31.646 L339.5951,31.646 C339.1281,31.646 338.7501,32.024 338.7501,32.491 L338.7501,45.24 C338.7501,45.707 339.1281,46.084 339.5951,46.084 L358.1791,46.084 C358.6451,46.084 359.0231,46.463 359.0231,46.93 L359.0231,54.367 C359.0231,54.833 358.6451,55.211 358.1791,55.211 L328.5971,55.211 C328.1301,55.211 327.7521,54.833 327.7521,54.367 L327.7521,1.593 C327.7521,1.126 328.1301,0.749 328.5971,0.749 L358.1041,0.749 C358.5711,0.749 358.9491,1.126 358.9491,1.593 L358.9491,9.068 C358.9491,9.535 358.5711,9.913 358.1041,9.913 L339.5951,9.913 C339.1281,9.913 338.7501,10.292 338.7501,10.758 L338.7501,21.935 C338.7501,22.402 339.1281,22.781 339.5951,22.781 L355.0371,22.781 C355.5041,22.781 355.8821,23.159 355.8821,23.625 L355.8821,30.8 C355.8821,31.267 355.5041,31.646 355.0371,31.646" id="Fill-13"></path>
                <path d="M10.998,23.1919 C11.047,18.4789 11.769,14.9689 13.167,12.6629 C14.562,10.3559 16.721,9.2019 19.639,9.2019 C22.58,9.2019 24.75,10.3989 26.146,12.7939 C27.543,15.1869 28.242,18.8399 28.242,23.7539 L28.242,33.2169 C28.217,37.8549 27.506,41.2779 26.109,43.4839 C26.017,43.6299 25.912,43.7589 25.813,43.8959 L25.876,43.8959 L25.638,44.1389 C25.324,44.5379 24.977,44.8839 24.604,45.1929 L21.038,48.8319 C20.217,49.6699 18.865,49.6579 18.058,48.8059 L14.36,44.9079 C14.253,44.8079 14.156,44.6919 14.054,44.5849 L13.335,43.8259 L13.428,43.8259 C13.328,43.6879 13.223,43.5579 13.129,43.4099 C11.708,41.1539 10.998,37.6439 10.998,32.8799 L10.998,23.1919 Z M33.965,6.1909 C30.473,2.0639 25.697,0.0009 19.639,0.0009 C13.478,0.0009 8.666,2.1009 5.199,6.3029 C1.732,10.5049 0,16.3469 0,23.8279 L0,33.1419 C0.05,40.3379 1.814,45.9329 5.295,49.9349 L5.246,49.9349 L5.795,50.4539 C6.264,50.9499 6.754,51.4109 7.266,51.8399 L17.986,61.9519 C18.773,62.6939 20.001,62.7049 20.801,61.9759 L30.88,52.7929 C32.053,51.9799 33.132,51.0269 34.096,49.8999 C37.549,45.8599 39.276,40.1869 39.276,32.8799 L39.276,23.5659 C39.227,16.1099 37.455,10.3189 33.965,6.1909 L33.965,6.1909 Z" id="Fill-16"></path>
                <path d="M122.96,75.269 L3.333,75.269 C1.952,75.269 0.833,74.15 0.833,72.769 C0.833,71.388 1.952,70.269 3.333,70.269 L122.96,70.269 C124.341,70.269 125.46,71.388 125.46,72.769 C125.46,74.15 124.341,75.269 122.96,75.269" id="Fill-18"></path>
            </g>
        </g>
    </g>
</svg>