<?xml version="1.0" encoding="UTF-8"?>
<svg width="398px" height="59px" viewBox="0 0 398 59" version="1.1" xmlns="http://www.w3.org/2000/svg" xmlns:xlink="http://www.w3.org/1999/xlink">
    <!-- Generator: Sketch 47.1 (45422) - http://www.bohemiancoding.com/sketch -->
    <title>riverside</title>
    <desc>Created with Sketch.</desc>
    <defs></defs>
    <g id="Page-1" stroke="none" stroke-width="1" fill="none" fill-rule="evenodd">
        <g id="logo-collection" transform="translate(-522.000000, -1813.000000)" fill="#012248">
            <g id="riverside" transform="translate(521.000000, 1813.000000)">
                <path d="M126.314207,15.6573793 L131.14731,15.6573793 C132.603862,15.6573793 133.726621,15.3208276 134.510069,14.6477241 C135.290759,13.9773793 135.682483,12.9870345 135.682483,11.6877241 C135.682483,10.4077241 135.290759,9.43944828 134.510069,8.78841379 C133.726621,8.13737931 132.603862,7.81186207 131.14731,7.81186207 L126.314207,7.81186207 L126.314207,15.6573793 Z M135.321103,26.6477241 L131.646621,20.0270345 L131.14731,20.0270345 L126.314207,20.0270345 L126.314207,26.6477241 L121.083862,26.6477241 L121.083862,3.47531034 L131.14731,3.47531034 C134.173517,3.47531034 136.510069,4.176 138.168,5.57737931 C139.820414,6.97875862 140.648,8.95944828 140.648,11.5194483 C140.648,13.3070345 140.278345,14.8353103 139.539034,16.1042759 C138.799724,17.3732414 137.726621,18.3387586 136.311448,19.0008276 L141.243862,26.6477241 L135.321103,26.6477241 Z" id="Fill-1"></path>
                <path d="M144.953103,26.6488276 L150.051034,26.6488276 L150.051034,8.83917241 L144.953103,8.83917241 L144.953103,26.6488276 Z M149.471724,1.72193103 C149.987586,2.24882759 150.249655,2.93572414 150.249655,3.77434483 C150.249655,4.61296552 149.987586,5.29710345 149.471724,5.82675862 C148.950345,6.35365517 148.282759,6.62124138 147.466207,6.62124138 C146.674483,6.62124138 146.017931,6.35089655 145.49931,5.80744828 C144.98069,5.26951724 144.721379,4.59089655 144.721379,3.77434483 C144.721379,2.93572414 144.98069,2.24882759 145.49931,1.72193103 C146.017931,1.18951724 146.674483,0.927448276 147.466207,0.927448276 C148.282759,0.927448276 148.950345,1.18951724 149.471724,1.72193103 L149.471724,1.72193103 Z" id="Fill-3"></path>
                <polygon id="Fill-5" points="152.4 8.87117241 157.663448 8.83806897 161.870345 21.8146207 166.038621 8.83806897 171.103448 8.83806897 164.386207 26.6477241 159.153103 26.6477241"></polygon>
                <path d="M184.380138,16.2877241 C184.333241,15.1153103 183.960828,14.1773793 183.254621,13.4711724 C182.548414,12.7677241 181.607724,12.4146207 180.438069,12.4146207 C179.337379,12.4146207 178.416,12.7622069 177.673931,13.4573793 C176.937379,14.1525517 176.468414,15.0932414 176.269793,16.2877241 L184.380138,16.2877241 Z M186.945655,11.1566897 C188.43531,12.8091034 189.177379,15.1153103 189.177379,18.0725517 C189.177379,18.6049655 189.166345,19.0104828 189.147034,19.3001379 L176.369103,19.3001379 C176.653241,20.4256552 177.204966,21.3001379 178.021517,21.9318621 C178.838069,22.558069 179.822897,22.8753103 180.970483,22.8753103 C181.806345,22.8753103 182.611862,22.7153103 183.387034,22.3953103 C184.159448,22.0753103 184.854621,21.6063448 185.472552,20.9884138 L188.151172,23.7028966 C187.246345,24.718069 186.151172,25.496 184.860138,26.033931 C183.569103,26.5746207 182.129103,26.8449655 180.537379,26.8449655 C178.664276,26.8449655 177.025655,26.4697931 175.621517,25.7222069 C174.220138,24.9691034 173.141517,23.9125517 172.377379,22.5442759 C171.618759,21.1732414 171.23531,19.5953103 171.23531,17.8104828 C171.23531,16.0008276 171.624276,14.4035862 172.393931,13.0242759 C173.169103,11.6449655 174.250483,10.5773793 175.640828,9.81324138 C177.031172,9.05462069 178.620138,8.67117241 180.407724,8.67117241 C183.27669,8.67117241 185.456,9.50151724 186.945655,11.1566897 L186.945655,11.1566897 Z" id="Fill-6"></path>
                <path d="M200.034759,9.5337931 C201.027862,8.96 202.186483,8.66206897 203.513379,8.64 L203.513379,13.44 C203.334069,13.417931 203.072,13.4068966 202.718897,13.4068966 C201.149241,13.4068966 199.907862,13.8317241 198.992,14.6813793 C198.076138,15.5310345 197.618207,16.662069 197.618207,18.0744828 L197.618207,26.6482759 L192.520276,26.6482759 L192.520276,8.83862069 L197.618207,8.83862069 L197.618207,12.0496552 C198.238897,10.9462069 199.044414,10.1075862 200.034759,9.5337931" id="Fill-7"></path>
                <path d="M214.635862,12.7936552 C213.684138,12.4984828 212.837241,12.3467586 212.084138,12.3467586 C211.468966,12.3467586 210.972414,12.4571034 210.597241,12.6777931 C210.21931,12.8984828 210.034483,13.2295172 210.034483,13.6708966 C210.034483,14.1564138 210.288276,14.5315862 210.793103,14.7991724 C211.303448,15.0612414 212.131034,15.361931 213.278621,15.6902069 C214.536552,16.0681379 215.573793,16.4350345 216.390345,16.7991724 C217.206897,17.1633103 217.910345,17.704 218.506207,18.4212414 C219.104828,19.1384828 219.402759,20.0846897 219.402759,21.2515862 C219.402759,23.0171034 218.721379,24.3908966 217.364138,25.3757241 C216.009655,26.3550345 214.268966,26.846069 212.153103,26.846069 C210.693793,26.846069 209.292414,26.6336552 207.946207,26.2005517 C206.602759,25.7702069 205.433103,25.1577931 204.44,24.3633103 L206.092414,20.9205517 C206.997241,21.6267586 208.009655,22.1729655 209.124138,22.5591724 C210.235862,22.9481379 211.292414,23.1384828 212.282759,23.1384828 C212.969655,23.1384828 213.515862,23.0226207 213.921379,22.7908966 C214.332414,22.5591724 214.536552,22.2115862 214.536552,21.7481379 C214.536552,21.2433103 214.274483,20.8433103 213.758621,20.5564138 C213.237241,20.2695172 212.404138,19.9633103 211.256552,19.6322759 C210.045517,19.2791724 209.035862,18.926069 208.230345,18.5702069 C207.424828,18.2198621 206.735172,17.681931 206.161379,16.9674483 C205.587586,16.2474483 205.297931,15.3150345 205.297931,14.1674483 C205.297931,12.401931 205.96,11.0336552 207.286897,10.0626207 C208.608276,9.09158621 210.288276,8.60606897 212.315862,8.60606897 C213.532414,8.60606897 214.746207,8.77710345 215.957241,9.11917241 C217.173793,9.46124138 218.274483,9.95503448 219.270345,10.5922759 L217.515862,14.0681379 C216.542069,13.5191724 215.584828,13.0915862 214.635862,12.7936552" id="Fill-8"></path>
                <path d="M222.812414,26.6488276 L227.910345,26.6488276 L227.910345,8.83917241 L222.812414,8.83917241 L222.812414,26.6488276 Z M227.331034,1.72193103 C227.846897,2.24882759 228.108966,2.93572414 228.108966,3.77434483 C228.108966,4.61296552 227.846897,5.29710345 227.331034,5.82675862 C226.809655,6.35365517 226.142069,6.62124138 225.325517,6.62124138 C224.533793,6.62124138 223.877241,6.35089655 223.355862,5.80744828 C222.84,5.26951724 222.58069,4.59089655 222.58069,3.77434483 C222.58069,2.93572414 222.84,2.24882759 223.355862,1.72193103 C223.877241,1.18951724 224.533793,0.927448276 225.325517,0.927448276 C226.142069,0.927448276 226.809655,1.18951724 227.331034,1.72193103 L227.331034,1.72193103 Z" id="Fill-9"></path>
                <path d="M244.078345,21.3685517 C244.905931,20.4526897 245.319724,19.2664828 245.319724,17.809931 C245.319724,16.3533793 244.905931,15.1671724 244.078345,14.2513103 C243.250759,13.3354483 242.185931,12.8775172 240.883862,12.8775172 C239.559724,12.8775172 238.483862,13.3354483 237.656276,14.2513103 C236.82869,15.1671724 236.403862,16.3533793 236.381793,17.809931 C236.403862,19.2664828 236.82869,20.4526897 237.656276,21.3685517 C238.483862,22.2844138 239.559724,22.7423448 240.883862,22.7423448 C242.185931,22.7423448 243.250759,22.2844138 244.078345,21.3685517 L244.078345,21.3685517 Z M250.384552,2.0857931 L250.384552,26.6485517 L245.319724,26.6485517 L245.319724,24.0333793 C244.679724,24.9602759 243.885241,25.6609655 242.936276,26.1354483 C241.98731,26.609931 240.905931,26.8444138 239.692138,26.8444138 C238.014897,26.8444138 236.541793,26.4664828 235.275586,25.7051034 C234.003862,24.9437241 233.021793,23.8678621 232.326621,22.4747586 C231.631448,21.0844138 231.283862,19.4871724 231.283862,17.6775172 C231.283862,15.889931 231.625931,14.312 232.310069,12.9437241 C232.994207,11.5754483 233.965241,10.5133793 235.223172,9.7657931 C236.481103,9.01268966 237.926621,8.64027586 239.559724,8.64027586 C242.075586,8.64027586 243.995586,9.5782069 245.319724,11.454069 L245.319724,2.0857931 L250.384552,2.0857931 Z" id="Fill-10"></path>
                <path d="M267.103724,16.2877241 C267.056828,15.1153103 266.684414,14.1773793 265.978207,13.4711724 C265.272,12.7677241 264.33131,12.4146207 263.161655,12.4146207 C262.060966,12.4146207 261.139586,12.7622069 260.397517,13.4573793 C259.660966,14.1525517 259.192,15.0932414 258.993379,16.2877241 L267.103724,16.2877241 Z M269.669241,11.1566897 C271.158897,12.8091034 271.900966,15.1153103 271.900966,18.0725517 C271.900966,18.6049655 271.889931,19.0104828 271.870621,19.3001379 L259.09269,19.3001379 C259.376828,20.4256552 259.928552,21.3001379 260.745103,21.9318621 C261.561655,22.558069 262.546483,22.8753103 263.694069,22.8753103 C264.529931,22.8753103 265.335448,22.7153103 266.110621,22.3953103 C266.883034,22.0753103 267.578207,21.6063448 268.196138,20.9884138 L270.874759,23.7028966 C269.969931,24.718069 268.874759,25.496 267.583724,26.033931 C266.29269,26.5746207 264.85269,26.8449655 263.260966,26.8449655 C261.387862,26.8449655 259.749241,26.4697931 258.345103,25.7222069 C256.943724,24.9691034 255.865103,23.9125517 255.100966,22.5442759 C254.342345,21.1732414 253.958897,19.5953103 253.958897,17.8104828 C253.958897,16.0008276 254.347862,14.4035862 255.117517,13.0242759 C255.89269,11.6449655 256.974069,10.5773793 258.364414,9.81324138 C259.754759,9.05462069 261.343724,8.67117241 263.13131,8.67117241 C266.000276,8.67117241 268.179586,9.50151724 269.669241,11.1566897 L269.669241,11.1566897 Z" id="Fill-11"></path>
                <path d="M294.560552,8.19227586 C293.225379,7.76193103 292.086069,7.54951724 291.134345,7.54951724 C290.229517,7.54951724 289.512276,7.71227586 288.985379,8.04331034 C288.452966,8.37434483 288.188138,8.85986207 288.188138,9.50262069 C288.188138,10.3191724 288.568828,10.9398621 289.330207,11.3702069 C290.091586,11.8033103 291.269517,12.2474483 292.855724,12.7136552 C294.44469,13.1771034 295.755034,13.6405517 296.781241,14.104 C297.80469,14.5674483 298.681931,15.2626207 299.410207,16.1867586 C300.138483,17.1136552 300.502621,18.3384828 300.502621,19.8612414 C300.502621,21.3426207 300.110897,22.6171034 299.330207,23.6846897 C298.544,24.7550345 297.468138,25.566069 296.102621,26.1177931 C294.731586,26.6695172 293.175724,26.9453793 291.432276,26.9453793 C289.559172,26.9453793 287.716414,26.6143448 285.904,25.9522759 C284.094345,25.2902069 282.530207,24.3853793 281.20331,23.2377931 L283.288828,18.9674483 C284.458483,20.0267586 285.80469,20.8791724 287.327448,21.5164138 C288.852966,22.1564138 290.24331,22.4764138 291.501241,22.4764138 C292.579862,22.4764138 293.424,22.2777931 294.033655,21.8805517 C294.637793,21.4833103 294.944,20.9095172 294.944,20.1591724 C294.944,19.5633103 294.737103,19.0722759 294.328828,18.686069 C293.92331,18.2998621 293.401931,17.9881379 292.775724,17.7426207 C292.144,17.4998621 291.280552,17.224 290.174345,16.9150345 C288.585379,16.4736552 287.288828,16.0350345 286.28469,15.5936552 C285.280552,15.1495172 284.414345,14.4764138 283.688828,13.5715862 C282.957793,12.6667586 282.593655,11.4667586 282.593655,9.96606897 C282.593655,8.57572414 282.968828,7.35365517 283.719172,6.30537931 C284.469517,5.25986207 285.517793,4.45434483 286.864,3.88882759 C288.210207,3.32606897 289.779862,3.04468966 291.56469,3.04468966 C293.153655,3.04468966 294.72331,3.27641379 296.265379,3.73986207 C297.810207,4.20331034 299.178483,4.82124138 300.370207,5.59641379 L298.350897,9.9302069 C297.159172,9.20193103 295.895724,8.62262069 294.560552,8.19227586" id="Fill-12"></path>
                <path d="M315.349793,21.3685517 C316.177379,20.4526897 316.591172,19.2664828 316.591172,17.809931 C316.591172,16.3533793 316.177379,15.1671724 315.349793,14.2513103 C314.522207,13.3354483 313.457379,12.8775172 312.15531,12.8775172 C310.831172,12.8775172 309.75531,13.3354483 308.927724,14.2513103 C308.100138,15.1671724 307.67531,16.3533793 307.653241,17.809931 C307.67531,19.2664828 308.100138,20.4526897 308.927724,21.3685517 C309.75531,22.2844138 310.831172,22.7423448 312.15531,22.7423448 C313.457379,22.7423448 314.522207,22.2844138 315.349793,21.3685517 L315.349793,21.3685517 Z M321.656,8.83889655 L321.656,33.0706207 L316.591172,33.0706207 L316.591172,24.0333793 C315.951172,24.9602759 315.15669,25.6609655 314.207724,26.1354483 C313.258759,26.609931 312.177379,26.8444138 310.963586,26.8444138 C309.286345,26.8444138 307.813241,26.4664828 306.547034,25.7051034 C305.27531,24.9437241 304.293241,23.8678621 303.598069,22.4747586 C302.902897,21.0844138 302.55531,19.4871724 302.55531,17.6775172 C302.55531,15.889931 302.897379,14.312 303.581517,12.9437241 C304.265655,11.5754483 305.23669,10.5133793 306.494621,9.7657931 C307.752552,9.01268966 309.198069,8.64027586 310.831172,8.64027586 C313.347034,8.64027586 315.267034,9.5782069 316.591172,11.454069 L316.591172,8.83889655 L321.656,8.83889655 Z" id="Fill-13"></path>
                <path d="M343.668966,8.83889655 L343.668966,26.6485517 L338.604138,26.6485517 L338.604138,23.5009655 C337.393103,25.7326897 335.404138,26.8444138 332.645517,26.8444138 C330.681379,26.8444138 329.122759,26.2347586 327.964138,25.0071724 C326.802759,23.7851034 326.223448,22.1244138 326.223448,20.0278621 L326.223448,8.83889655 L331.321379,8.83889655 L331.321379,18.5685517 C331.321379,19.6968276 331.61931,20.5795862 332.217931,21.2195862 C332.811034,21.8595862 333.627586,22.1795862 334.664828,22.1795862 C335.878621,22.1575172 336.838621,21.7271724 337.544828,20.8885517 C338.251034,20.0471724 338.604138,18.9685517 338.604138,17.6416552 L338.604138,8.83889655 L343.668966,8.83889655 Z" id="Fill-14"></path>
                <path d="M357.507862,22.4755862 C358.277517,21.968 358.740966,21.3307586 358.898207,20.5583448 L358.898207,18.9693793 L354.89269,18.9693793 C353.896828,18.9693793 353.165793,19.1266207 352.69131,19.4466207 C352.214069,19.7693793 351.976828,20.2797241 351.976828,20.9886897 C351.976828,21.6728276 352.227862,22.2162759 352.724414,22.6273103 C353.218207,23.0328276 353.896828,23.2369655 354.760276,23.2369655 C355.819586,23.2369655 356.735448,22.985931 357.507862,22.4755862 L357.507862,22.4755862 Z M358.93131,26.6493793 L358.93131,24.5638621 C358.335448,25.3114483 357.563034,25.8852414 356.614069,26.2852414 C355.662345,26.6797241 354.57269,26.8811034 353.334069,26.8811034 C351.460966,26.8811034 349.97131,26.3652414 348.865103,25.3390345 C347.764414,24.3128276 347.21269,22.9748966 347.21269,21.3169655 C347.21269,19.6424828 347.800276,18.3348966 348.980966,17.3942069 C350.164414,16.4562759 351.833379,15.9790345 353.998897,15.9569655 L358.898207,15.9569655 L358.898207,15.625931 C358.898207,14.6769655 358.583724,13.9404138 357.952,13.4245517 C357.325793,12.9031724 356.404414,12.6466207 355.187862,12.6466207 C353.535448,12.6466207 351.767172,13.1652414 349.89131,14.1997241 L348.302345,10.6935172 C349.717517,9.98731034 351.038897,9.46593103 352.277517,9.13489655 C353.513379,8.80662069 354.870621,8.63834483 356.346483,8.63834483 C358.729931,8.63834483 360.578207,9.20110345 361.894069,10.3293793 C363.204414,11.4548966 363.874759,13.0190345 363.894069,15.030069 L363.927172,26.6493793 L358.93131,26.6493793 Z" id="Fill-15"></path>
                <path d="M375.845517,9.5337931 C376.838621,8.96 377.997241,8.66206897 379.321379,8.64 L379.321379,13.44 C379.144828,13.417931 378.88,13.4068966 378.526897,13.4068966 C376.96,13.4068966 375.718621,13.8317241 374.802759,14.6813793 C373.886897,15.5310345 373.428966,16.662069 373.428966,18.0744828 L373.428966,26.6482759 L368.331034,26.6482759 L368.331034,8.83862069 L373.428966,8.83862069 L373.428966,12.0496552 C374.046897,10.9462069 374.852414,10.1075862 375.845517,9.5337931" id="Fill-16"></path>
                <path d="M393.72,16.2877241 C393.675862,15.1153103 393.30069,14.1773793 392.594483,13.4711724 C391.888276,12.7677241 390.950345,12.4146207 389.78069,12.4146207 C388.677241,12.4146207 387.755862,12.7622069 387.016552,13.4573793 C386.277241,14.1525517 385.808276,15.0932414 385.612414,16.2877241 L393.72,16.2877241 Z M396.285517,11.1566897 C397.775172,12.8091034 398.52,15.1153103 398.52,18.0725517 C398.52,18.6049655 398.508966,19.0104828 398.489655,19.3001379 L385.708966,19.3001379 C385.995862,20.4256552 386.547586,21.3001379 387.364138,21.9318621 C388.18069,22.558069 389.162759,22.8753103 390.310345,22.8753103 C391.148966,22.8753103 391.954483,22.7153103 392.729655,22.3953103 C393.49931,22.0753103 394.194483,21.6063448 394.812414,20.9884138 L397.493793,23.7028966 C396.588966,24.718069 395.493793,25.496 394.2,26.033931 C392.908966,26.5746207 391.471724,26.8449655 389.88,26.8449655 C388.004138,26.8449655 386.365517,26.4697931 384.964138,25.7222069 C383.562759,24.9691034 382.481379,23.9125517 381.72,22.5442759 C380.958621,21.1732414 380.577931,19.5953103 380.577931,17.8104828 C380.577931,16.0008276 380.964138,14.4035862 381.736552,13.0242759 C382.511724,11.6449655 383.590345,10.5773793 384.98069,9.81324138 C386.371034,9.05462069 387.96,8.67117241 389.750345,8.67117241 C392.616552,8.67117241 394.798621,9.50151724 396.285517,11.1566897 L396.285517,11.1566897 Z" id="Fill-17"></path>
                <path d="M130.813241,42.4002759 C130.018759,41.9975172 129.218759,41.7961379 128.416,41.7961379 C127.447724,41.7961379 126.564966,42.0361379 125.762207,42.5106207 C124.959448,42.9851034 124.327724,43.6333793 123.867034,44.4526897 C123.409103,45.272 123.180138,46.1795862 123.180138,47.1782069 C123.180138,48.1795862 123.409103,49.0926897 123.867034,49.9202759 C124.327724,50.7478621 124.959448,51.4044138 125.762207,51.8844138 C126.564966,52.369931 127.447724,52.609931 128.416,52.609931 C129.185655,52.609931 129.966345,52.4278621 130.760828,52.0582069 C131.558069,51.6885517 132.264276,51.1947586 132.887724,50.5713103 L135.174621,53.054069 C134.256,54.0030345 133.177379,54.7561379 131.941517,55.3161379 C130.705655,55.8733793 129.464276,56.1492414 128.220138,56.1492414 C126.531862,56.1492414 125.000828,55.7630345 123.624276,54.9851034 C122.247724,54.2044138 121.166345,53.1368276 120.380138,51.774069 C119.593931,50.414069 119.199448,48.8995862 119.199448,47.2306207 C119.199448,45.5726897 119.602207,44.0747586 120.404966,42.7313103 C121.207724,41.3878621 122.308414,40.3313103 123.709793,39.5616552 C125.111172,38.7892414 126.661517,38.4057931 128.366345,38.4057931 C129.610483,38.4057931 130.840828,38.6651034 132.051862,39.1809655 C133.265655,39.6968276 134.297379,40.3947586 135.149793,41.2830345 L132.887724,44.0609655 C132.300138,43.3547586 131.607724,42.8030345 130.813241,42.4002759" id="Fill-18"></path>
                <path d="M142.572414,42.5241379 C141.753103,43.0068966 141.104828,43.6662069 140.630345,44.502069 C140.155862,45.337931 139.915862,46.2565517 139.915862,47.2551724 C139.915862,48.2703448 140.158621,49.1944828 140.644138,50.0331034 C141.126897,50.8662069 141.772414,51.5310345 142.583448,52.0193103 C143.394483,52.5131034 144.274483,52.7586207 145.226207,52.7586207 C146.177931,52.7586207 147.046897,52.5158621 147.844138,52.0331034 C148.635862,51.5503448 149.270345,50.8855172 149.736552,50.0441379 C150.202759,49.2 150.437241,48.2703448 150.437241,47.2551724 C150.437241,46.2565517 150.202759,45.337931 149.736552,44.502069 C149.270345,43.6662069 148.635862,43.0068966 147.844138,42.5241379 C147.046897,42.0386207 146.177931,41.7958621 145.226207,41.7958621 C144.274483,41.7958621 143.391724,42.0386207 142.572414,42.5241379 M149.871724,39.5613793 C151.278621,40.3310345 152.390345,41.3931034 153.201379,42.7448276 C154.009655,44.0937931 154.417931,45.5972414 154.417931,47.2551724 C154.417931,48.9075862 154.009655,50.4137931 153.201379,51.7765517 C152.390345,53.1365517 151.278621,54.2041379 149.871724,54.9848276 C148.462069,55.7627586 146.895172,56.1489655 145.176552,56.1489655 C143.455172,56.1489655 141.891034,55.7627586 140.481379,54.9848276 C139.071724,54.2041379 137.962759,53.142069 137.151724,51.7875862 C136.34069,50.4358621 135.937931,48.9241379 135.937931,47.2551724 C135.937931,45.5972414 136.34069,44.0937931 137.151724,42.7448276 C137.962759,41.3931034 139.068966,40.3310345 140.470345,39.5613793 C141.871724,38.7889655 143.438621,38.4055172 145.176552,38.4055172 C146.895172,38.4055172 148.462069,38.7889655 149.871724,39.5613793" id="Fill-19"></path>
                <polygon id="Fill-20" points="168.868138 38.6772414 172.556414 38.6772414 172.556414 55.88 169.017103 55.88 160.68331 44.8206897 160.68331 55.88 156.972966 55.88 156.972966 38.6772414 160.512276 38.6772414 168.868138 49.7834483"></polygon>
                <path d="M186.306207,51.9368276 C187.067586,51.4844138 187.66069,50.8582069 188.088276,50.0554483 C188.513103,49.2526897 188.728276,48.334069 188.728276,47.3023448 C188.728276,46.2706207 188.502069,45.3437241 188.052414,44.5244138 C187.6,43.7078621 186.984828,43.0706207 186.209655,42.6209655 C185.431724,42.1713103 184.548966,41.9451034 183.566897,41.9451034 L180.223448,41.9451034 L180.223448,52.609931 L183.737931,52.609931 C184.686897,52.609931 185.544828,52.3864828 186.306207,51.9368276 M188.333793,39.7713103 C189.710345,40.4995862 190.777931,41.5147586 191.53931,42.8168276 C192.303448,44.1188966 192.684138,45.6057931 192.684138,47.2802759 C192.684138,48.9492414 192.295172,50.4361379 191.517241,51.7409655 C190.736552,53.0402759 189.652414,54.0582069 188.25931,54.7864828 C186.866207,55.5147586 185.277241,55.8816552 183.489655,55.8816552 L176.342069,55.8816552 L176.342069,38.6761379 L183.638621,38.6761379 C185.393103,38.6761379 186.957241,39.0402759 188.333793,39.7713103" id="Fill-21"></path>
                <path d="M200.204414,42.5241379 C199.385103,43.0068966 198.736828,43.6662069 198.262345,44.502069 C197.787862,45.337931 197.547862,46.2565517 197.547862,47.2551724 C197.547862,48.2703448 197.790621,49.1944828 198.276138,50.0331034 C198.758897,50.8662069 199.404414,51.5310345 200.215448,52.0193103 C201.026483,52.5131034 201.906483,52.7586207 202.858207,52.7586207 C203.809931,52.7586207 204.678897,52.5158621 205.476138,52.0331034 C206.267862,51.5503448 206.902345,50.8855172 207.368552,50.0441379 C207.834759,49.2 208.069241,48.2703448 208.069241,47.2551724 C208.069241,46.2565517 207.834759,45.337931 207.368552,44.502069 C206.902345,43.6662069 206.267862,43.0068966 205.476138,42.5241379 C204.678897,42.0386207 203.809931,41.7958621 202.858207,41.7958621 C201.906483,41.7958621 201.023724,42.0386207 200.204414,42.5241379 M207.503724,39.5613793 C208.910621,40.3310345 210.022345,41.3931034 210.833379,42.7448276 C211.641655,44.0937931 212.049931,45.5972414 212.049931,47.2551724 C212.049931,48.9075862 211.641655,50.4137931 210.833379,51.7765517 C210.022345,53.1365517 208.910621,54.2041379 207.503724,54.9848276 C206.094069,55.7627586 204.527172,56.1489655 202.808552,56.1489655 C201.087172,56.1489655 199.523034,55.7627586 198.113379,54.9848276 C196.703724,54.2041379 195.594759,53.142069 194.783724,51.7875862 C193.97269,50.4358621 193.569931,48.9241379 193.569931,47.2551724 C193.569931,45.5972414 193.97269,44.0937931 194.783724,42.7448276 C195.594759,41.3931034 196.700966,40.3310345 198.102345,39.5613793 C199.503724,38.7889655 201.070621,38.4055172 202.808552,38.4055172 C204.527172,38.4055172 206.094069,38.7889655 207.503724,39.5613793" id="Fill-22"></path>
                <path d="M223.121931,42.1793103 C222.131586,41.8593103 221.281931,41.6993103 220.578483,41.6993103 C219.905379,41.6993103 219.375724,41.8234483 218.981241,42.0689655 C218.586759,42.3144828 218.390897,42.6758621 218.390897,43.1503448 C218.390897,43.7544828 218.675034,44.217931 219.237793,44.537931 C219.80331,44.857931 220.675034,45.1889655 221.855724,45.5337931 C223.036414,45.8786207 224.00469,46.2206897 224.768828,46.5655172 C225.530207,46.9103448 226.181241,47.4262069 226.721931,48.1131034 C227.262621,48.8 227.532966,49.7103448 227.532966,50.8441379 C227.532966,51.9393103 227.240552,52.8855172 226.658483,53.68 C226.076414,54.4744828 225.279172,55.0786207 224.264,55.4868966 C223.248828,55.897931 222.092966,56.102069 220.799172,56.102069 C219.406069,56.102069 218.037793,55.8565517 216.694345,55.3627586 C215.350897,54.8744828 214.189517,54.1986207 213.20469,53.3489655 L214.752276,50.1765517 C215.621241,50.9655172 216.622621,51.5944828 217.750897,52.0717241 C218.881931,52.5462069 219.913655,52.7834483 220.848828,52.7834483 C221.651586,52.7834483 222.275034,52.6372414 222.727448,52.342069 C223.179862,52.0468966 223.406069,51.622069 223.406069,51.0648276 C223.406069,50.6206897 223.251586,50.2565517 222.950897,49.9696552 C222.64469,49.6827586 222.261241,49.4510345 221.795034,49.2689655 C221.328828,49.0896552 220.68331,48.8855172 219.864,48.6565517 C218.686069,48.3282759 217.72331,47.9972414 216.975724,47.6717241 C216.230897,47.3434483 215.590897,46.8441379 215.047448,46.1710345 C214.506759,45.5006897 214.236414,44.6096552 214.236414,43.4951724 C214.236414,42.4634483 214.515034,41.5558621 215.072276,40.777931 C215.629517,40 216.407448,39.4013793 217.408828,38.9848276 C218.407448,38.5655172 219.571586,38.3558621 220.895724,38.3558621 C222.076414,38.3558621 223.240552,38.5296552 224.388138,38.8744828 C225.532966,39.2165517 226.548138,39.6772414 227.433655,40.2510345 L225.935724,43.4703448 C225.050207,42.9268966 224.112276,42.4965517 223.121931,42.1793103" id="Fill-23"></path>
                <path d="M52.6532414,33.6529655 C42.1097931,33.6529655 37.1166897,31.2391724 31.833931,28.6791724 C25.6766897,25.6998621 19.3097931,22.6184828 2.65324138,22.6184828 C1.74013793,22.6184828 0.998068966,21.8764138 0.998068966,20.9633103 C0.998068966,20.0502069 1.74013793,19.3108966 2.65324138,19.3108966 C20.0684138,19.3108966 27.0835862,22.704 33.2766897,25.6998621 C38.4242759,28.1936552 42.8684138,30.3453793 52.6532414,30.3453793 C62.8711724,30.3453793 68.1842759,26.8722759 73.8091034,23.1977931 C80.1097931,19.081931 86.6201379,14.8281379 99.8946207,14.8281379 C100.807724,14.8281379 101.549793,15.5674483 101.549793,16.4805517 C101.549793,17.3936552 100.807724,18.1357241 99.8946207,18.1357241 C87.6077241,18.1357241 81.513931,22.1164138 75.6187586,25.9674483 C69.8366897,29.7467586 63.856,33.6529655 52.6532414,33.6529655" id="Fill-24"></path>
                <path d="M31.3412414,3.30813793 C34.0833103,5.1702069 36.4115862,7.56193103 38.5991724,9.80468966 C42.6626207,13.984 46.5053793,17.9315862 52.0805517,17.9315862 C59.904,17.9315862 64.7205517,16.2267586 69.3771034,14.5771034 C71.046069,13.9867586 72.7371034,13.3881379 74.5633103,12.8667586 L74.5633103,3.30813793 L31.3412414,3.30813793 Z M52.0805517,21.2391724 C45.1067586,21.2391724 40.5936552,16.601931 36.2267586,12.1136552 C31.8184828,7.58675862 27.6529655,3.30813793 21.046069,3.30813793 C20.1329655,3.30813793 19.3908966,2.56606897 19.3908966,1.65296552 C19.3908966,0.739862069 20.1329655,0.000551724138 21.046069,0.000551724138 L76.2184828,0.000551724138 C77.1315862,0.000551724138 77.8708966,0.739862069 77.8708966,1.65296552 L77.8708966,12.0557241 C80.2653793,11.5729655 82.944,11.264 86.1026207,11.264 C87.0157241,11.264 87.7550345,12.0033103 87.7550345,12.9164138 C87.7550345,13.8295172 87.0157241,14.5715862 86.1026207,14.5715862 C79.3108966,14.5715862 75.0212414,16.0915862 70.4805517,17.6971034 C65.561931,19.4405517 60.4750345,21.2391724 52.0805517,21.2391724 L52.0805517,21.2391724 Z" id="Fill-25"></path>
                <path d="M22.6990345,55.1724138 L74.5638621,55.1724138 L74.5638621,38.0248276 C68.790069,43.1613793 60.7762759,48.3641379 44.0314483,48.3641379 C33.2976552,48.3641379 26.2548966,45.3931034 22.6990345,43.3682759 L22.6990345,55.1724138 Z M76.2162759,58.48 L21.0438621,58.48 C20.1307586,58.48 19.3914483,57.7406897 19.3914483,56.8275862 L19.3914483,40.2758621 C19.3914483,39.6275862 19.7693793,39.04 20.3542069,38.7696552 C20.9445517,38.5048276 21.6314483,38.5986207 22.1252414,39.0234483 C22.1914483,39.0758621 29.408,45.0565517 44.0314483,45.0565517 C62.4866207,45.0565517 69.2590345,38.582069 75.2342069,32.8744828 C78.7983448,29.4675862 82.1666207,26.2510345 87.4217931,25.3103448 C88.3128276,25.1668966 89.1845517,25.7462069 89.3417931,26.6482759 C89.5045517,27.5475862 88.9031724,28.4082759 88.0038621,28.5682759 C83.7390345,29.3324138 80.9997241,31.9448276 77.5376552,35.2524138 C77.7473103,35.5310345 77.8714483,35.8786207 77.8714483,36.2537931 L77.8714483,56.8275862 C77.8714483,57.7406897 77.1293793,58.48 76.2162759,58.48 L76.2162759,58.48 Z" id="Fill-26"></path>
            </g>
        </g>
    </g>
</svg>