<?xml version="1.0" encoding="UTF-8"?>
<svg width="415px" height="145px" viewBox="0 0 415 145" version="1.1" xmlns="http://www.w3.org/2000/svg" xmlns:xlink="http://www.w3.org/1999/xlink">
    <!-- Generator: Sketch 47.1 (45422) - http://www.bohemiancoding.com/sketch -->
    <title>spire</title>
    <desc>Created with Sketch.</desc>
    <defs>
        <polygon id="path-1" points="0 145 415 145 415 0 0 0"></polygon>
    </defs>
    <g id="Page-1" stroke="none" stroke-width="1" fill="none" fill-rule="evenodd">
        <g id="logo-collection" transform="translate(-513.000000, -2921.000000)">
            <g id="spire" transform="translate(513.000000, 2921.000000)">
                <path d="M177.250129,61.9286976 C186.062375,61.9286976 191.92597,63.5330115 195.17547,66.8327838 C198.376935,70.084452 200,75.2147119 200,82.0817829 L200,87.9656736 C200,97.0041804 197.350511,103.362361 192.125693,106.864677 C187.044978,110.271628 179.095669,112 168.4994,112 C161.824273,112 153.446024,111.322323 143.59724,109.986379 L142.62475,109.854726 L142.62475,97.342597 L143.980675,97.6303776 C153.689568,99.6904145 162.19001,100.734358 169.249414,100.734358 C174.823116,100.734358 179.112524,100.11238 181.997972,98.8844599 C184.607853,97.7755338 185.876978,95.5551499 185.876978,92.0967185 L185.876978,81.5804875 C185.876978,78.5085767 185.06376,76.4080311 183.390976,75.1598563 C181.638133,73.8542942 178.309418,73.1926519 173.500057,73.1926519 L163.999314,73.1926519 C155.552805,73.1926519 149.540893,71.4144881 146.131277,67.9071087 C142.726718,64.4107003 141,59.2399317 141,52.5382713 L141,46.0290273 C141,39.2370663 143.45735,34.1219972 148.304633,30.8256006 C153.082814,27.578152 161.487188,26 173.999786,26 C179.840627,26 186.906773,26.4658502 195.001871,27.3840477 L195.999643,27.4971346 L195.999643,38.9518174 L194.705236,38.7543374 C185.549163,37.3500353 178.288351,36.6377571 173.124207,36.6377571 C165.620694,36.6377571 160.622565,37.3626943 158.269711,38.7906265 C156.067703,40.128258 154.997458,42.3731159 154.997458,45.6526339 L154.997458,54.9164704 C154.997458,57.3689355 155.811518,59.0863362 157.48346,60.1674125 C159.289393,61.3362577 162.658559,61.9286976 167.499943,61.9286976 L177.250129,61.9286976 Z" id="Fill-1" fill="#40464C"></path>
                <path d="M259.102285,68.4971488 L259.102285,90.9942977 C259.102285,95.6900439 258.073204,98.702104 256.042301,99.9478272 C253.835057,101.303467 249.677839,101.991086 243.683949,101.991086 C237.781211,101.991086 233.713442,101.306876 231.593943,99.9563479 C229.638006,98.7140329 228.645555,95.6985646 228.645555,90.9942977 L228.645555,68.4971488 C228.645555,63.2671561 229.631191,59.8341745 231.496827,58.5671495 C233.526879,57.1876516 237.583573,56.4881038 243.55787,56.4881038 C249.539833,56.4881038 253.714088,57.2149177 255.962223,58.648096 C258.045943,59.979026 259.102285,63.2927181 259.102285,68.4971488 M267.005258,51.4148915 C263.057605,47.8217212 256.784296,46 248.359967,46 C238.258269,46 231.699577,47.5524677 228.519476,50.7213083 L228.519476,47.2644688 L215,47.2644688 L215,137 L228.645555,137 L228.645555,108.641476 C229.821162,109.490988 231.370748,110.170086 233.286646,110.673658 C236.571529,111.535951 239.985048,111.974766 243.43179,111.974766 C246.80527,111.974766 249.730656,111.866553 252.126168,111.653536 C254.551495,111.436259 257.182128,110.888379 259.944803,110.027791 C262.784149,109.139936 265.115769,107.889952 266.872364,106.311922 C268.634922,104.732189 270.116356,102.486138 271.274925,99.6368224 C272.419864,96.8139215 273,93.4380284 273,89.6037229 L273,64.4523825 C273,59.4243298 270.982727,55.0378842 267.005258,51.4148915" id="Fill-3" fill="#40464C"></path>
                <mask id="mask-2" fill="white">
                    <use xlink:href="#path-1"></use>
                </mask>
                <g id="Clip-6"></g>
                <polygon id="Fill-5" fill="#40464C" mask="url(#mask-2)" points="288 111 302 111 302 48 288 48"></polygon>
                <polygon id="Fill-7" fill="#40464C" mask="url(#mask-2)" points="288 40 302 40 302 26 288 26"></polygon>
                <path d="M335.654665,49.5444131 C334.11454,50.4966687 332.867893,51.5205541 331.919798,52.6093277 L331.919798,47.2505728 L319,47.2505728 L319,110 L332.54735,110 L332.54735,66.2493351 C332.54735,62.9990256 333.564797,60.8686698 335.658048,59.737761 C337.947515,58.5006715 341.628253,57.872857 346.598772,57.872857 L354,57.872857 L354,46 L347.351497,46 C343.392504,46 339.457193,47.1924262 335.654665,49.5444131" id="Fill-8" fill="#40464C" mask="url(#mask-2)"></path>
                <path d="M387.626445,55.8597665 C392.712424,55.8597665 396.35027,56.5058893 398.438316,57.7785297 C400.374285,58.9591104 401.314077,61.1446763 401.314077,64.4588263 L401.314077,72.9317301 L373.811514,72.9317301 L373.811514,64.4588263 C373.811514,61.0815984 374.821362,58.8840988 376.896592,57.7418763 C379.168324,56.4931033 382.777976,55.8597665 387.626445,55.8597665 L387.626445,55.8597665 Z M415,82.6653407 L415,67.9997159 C415,59.9069846 412.778675,54.1344991 408.398394,50.8425118 C404.116363,47.6289456 397.340468,46 388.260377,46 C378.592488,46 371.412483,47.6920236 366.92199,51.0291884 C362.328974,54.4456269 360,60.1550344 360,67.9997159 L360,92.1491967 C360,105.320556 369.849012,112 389.274497,112 C396.504054,112 404.048869,111.140776 411.699624,109.443638 L412.592426,109.246732 L412.592426,98.1458645 L411.170778,98.5081366 C403.357695,100.498502 396.5032,101.507749 390.79525,101.507749 C385.030912,101.507749 380.665155,100.647673 377.819296,98.9496823 C375.122095,97.3437516 373.811514,94.6646433 373.811514,90.758072 L373.811514,82.6653407 L415,82.6653407 Z" id="Fill-9" fill="#40464C" mask="url(#mask-2)"></path>
                <path d="M44,43.1763444 L44,60.8232965 C44,64.8021734 39.7980015,67.2890791 36.4364028,65.3000714 L21.5218294,56.4757339 C18.1593902,54.4867262 18.1593902,49.5120533 21.5218294,47.5230456 L36.4364028,38.6995695 C39.7980015,36.7114232 44,39.1974675 44,43.1763444" id="Fill-10" fill="#E6F5FB" mask="url(#mask-2)"></path>
                <path d="M99.4791298,123.403073 L63.5626107,144.311431 C60.2014504,146.267803 56,143.82255 56,139.908958 L56,98.0913951 C56,94.1778033 60.2014504,91.7317026 63.5626107,93.6889221 L99.4791298,114.59728 C102.84029,116.554499 102.84029,121.445854 99.4791298,123.403073" id="Fill-11" fill="#80C7E7" mask="url(#mask-2)"></path>
                <path d="M30.4449635,83.3607812 L7.66510956,96.3176677 C4.2583942,98.2561657 0,95.8334628 0,91.9573062 L0,66.0426938 C0,62.1665372 4.2583942,59.7438343 7.66510956,61.6823323 L30.4449635,74.6392188 C33.8516788,76.5777168 33.8516788,81.4222832 30.4449635,83.3607812" id="Fill-12" fill="#D3EBF5" mask="url(#mask-2)"></path>
                <path d="M6.52403088,111.092348 L36.4279074,93.6891505 C39.7932819,91.7307713 44,94.1793814 44,98.0969879 L44,132.903382 C44,136.820988 39.7932819,139.269599 36.4279074,137.310371 L6.52403088,119.907174 C3.15865637,117.947947 3.15865637,113.051575 6.52403088,111.092348" id="Fill-13" fill="#ABD9EF" mask="url(#mask-2)"></path>
                <path d="M111.44295,36.9071904 L63.66902,64.3118487 C60.2601879,66.2673884 56,63.8223285 56,59.9104021 L56,5.08922862 C56,1.17730215 60.2610401,-1.26775775 63.6698722,0.68862894 L111.443802,28.105991 C114.852634,30.0615308 114.851782,34.9516506 111.44295,36.9071904" id="Fill-14" fill="#2EA1DA" mask="url(#mask-2)"></path>
                <path d="M119,55.1050534 L119,103.894947 C119,107.819037 114.787632,110.2717 111.417737,108.30923 L69.5274209,83.9134337 C66.1575264,81.9518132 66.1575264,77.0473373 69.5274209,75.0857168 L111.417737,50.6907702 C114.787632,48.7283002 119,51.1809629 119,55.1050534" id="Fill-15" fill="#56B6E1" mask="url(#mask-2)"></path>
            </g>
        </g>
    </g>
</svg>