<?xml version="1.0" encoding="UTF-8"?>
<svg width="527px" height="65px" viewBox="0 0 527 65" version="1.1" xmlns="http://www.w3.org/2000/svg" xmlns:xlink="http://www.w3.org/1999/xlink">
    <!-- Generator: Sketch 47.1 (45422) - http://www.bohemiancoding.com/sketch -->
    <title>white-bever</title>
    <desc>Created with Sketch.</desc>
    <defs></defs>
    <g id="Page-1" stroke="none" stroke-width="1" fill="none" fill-rule="evenodd">
        <g id="logo-collection" transform="translate(-457.000000, -1249.000000)">
            <g id="white-bever" transform="translate(457.000000, 1249.000000)">
                <path d="M5.7099,16.8129 L5.7099,35.8469 C5.7099,45.2919 13.3949,52.9769 22.8409,52.9769 C32.2859,52.9769 39.9719,45.2919 39.9719,35.8469 L39.9719,16.8129 L5.7099,16.8129 Z M22.8409,58.6879 C10.2459,58.6879 -0.0001,48.4409 -0.0001,35.8469 L-0.0001,13.9579 C-0.0001,12.3799 1.2779,11.1029 2.8559,11.1029 L42.8259,11.1029 C44.4029,11.1029 45.6819,12.3799 45.6819,13.9579 L45.6819,35.8469 C45.6819,48.4409 35.4349,58.6879 22.8409,58.6879 L22.8409,58.6879 Z" id="Fill-1" fill="#FAAF3B"></path>
                <path d="M28.3847,5.7104 L28.3847,37.8534 C28.3847,49.1664 37.5887,58.3704 48.9027,58.3704 C60.2147,58.3704 69.4197,49.1664 69.4197,37.8534 L69.4197,5.7104 L28.3847,5.7104 Z M48.9027,64.0804 C34.4407,64.0804 22.6747,52.3154 22.6747,37.8534 L22.6747,2.8554 C22.6747,1.2774 23.9527,0.0004 25.5307,0.0004 L72.2747,0.0004 C73.8517,0.0004 75.1297,1.2774 75.1297,2.8554 L75.1297,37.8534 C75.1297,52.3154 63.3637,64.0804 48.9027,64.0804 L48.9027,64.0804 Z" id="Fill-4" fill="#FAAF3B"></path>
                <path d="M319.1836,39.7177 C319.1836,38.4237 318.9206,37.4107 318.3956,36.6787 C317.8706,35.9467 317.0816,35.3937 316.0316,35.0187 C315.3936,34.7747 314.5156,34.6377 313.3996,34.6107 C312.2826,34.5817 310.7866,34.5677 308.9106,34.5677 L306.9676,34.5677 L306.9676,45.0667 L307.5316,45.0667 C310.2706,45.0667 312.1646,45.0477 313.2166,45.0097 C314.2666,44.9717 315.3356,44.7187 316.4246,44.2497 C317.3816,43.8377 318.0806,43.2317 318.5216,42.4337 C318.9626,41.6367 319.1836,40.7317 319.1836,39.7177 M316.5376,22.6897 C316.5376,22.0147 316.3636,21.3207 316.0166,20.6077 C315.6696,19.8947 315.1306,19.3787 314.3986,19.0587 C313.7046,18.7597 312.8836,18.5947 311.9366,18.5667 C310.9886,18.5387 309.5756,18.5247 307.7006,18.5247 L306.9676,18.5247 L306.9676,27.3907 L308.2906,27.3907 C310.0926,27.3907 311.3536,27.3727 312.0766,27.3347 C312.7976,27.2967 313.5446,27.0997 314.3136,26.7427 C315.1596,26.3497 315.7406,25.8047 316.0586,25.1107 C316.3776,24.4167 316.5376,23.6097 316.5376,22.6897 M330.0186,39.9147 C330.0186,41.9987 329.6256,43.8277 328.8376,45.4037 C328.0486,46.9797 326.9886,48.2847 325.6576,49.3167 C324.0796,50.5547 322.3496,51.4367 320.4636,51.9617 C318.5786,52.4877 316.1806,52.7497 313.2726,52.7497 L298.6586,52.7497 C297.4646,52.7497 296.4976,51.7827 296.4976,50.5897 L296.4976,13.0017 C296.4976,11.8087 297.4646,10.8417 298.6586,10.8417 L311.3016,10.8417 C314.3786,10.8417 316.7106,10.9587 318.2956,11.1927 C319.8816,11.4277 321.3696,11.9207 322.7566,12.6707 C324.2586,13.4777 325.3796,14.5557 326.1206,15.9067 C326.8616,17.2587 327.2336,18.8157 327.2336,20.5787 C327.2336,22.6247 326.7216,24.4457 325.6996,26.0387 C324.6756,27.6347 323.2646,28.8067 321.4626,29.5567 L321.4626,29.7827 C324.0526,30.3267 326.1246,31.4397 327.6836,33.1187 C329.2406,34.7977 330.0186,37.0637 330.0186,39.9147" id="Fill-6" fill="#373C42"></path>
                <path d="M338.3486,50.5893 L338.3486,13.0023 C338.3486,11.8083 339.3156,10.8413 340.5086,10.8413 L364.5306,10.8413 C365.7236,10.8413 366.6916,11.8083 366.6916,13.0023 L366.6916,16.6733 C366.6916,17.8673 365.7236,18.8343 364.5306,18.8343 L348.8186,18.8343 L348.8186,26.1803 L363.1226,26.1803 C364.3166,26.1803 365.2846,27.1483 365.2846,28.3403 L365.2846,32.0133 C365.2846,33.2063 364.3166,34.1733 363.1226,34.1733 L348.8186,34.1733 L348.8186,44.7563 L364.5306,44.7563 C365.7236,44.7563 366.6916,45.7233 366.6916,46.9163 L366.6916,50.5893 C366.6916,51.7823 365.7236,52.7503 364.5306,52.7503 L340.5086,52.7503 C339.3156,52.7503 338.3486,51.7823 338.3486,50.5893" id="Fill-8" fill="#373C42"></path>
                <path d="M395.6504,36.5942 L391.3724,22.7742 L387.0944,36.5942 L395.6504,36.5942 Z M372.5774,49.8982 L385.2754,12.3102 C385.5724,11.4322 386.3954,10.8422 387.3224,10.8422 L395.7034,10.8422 C396.6294,10.8422 397.4544,11.4322 397.7504,12.3102 L410.4484,49.8982 C410.9214,51.2992 409.8794,52.7502 408.4014,52.7502 L402.1734,52.7502 C401.2244,52.7502 400.3854,52.1302 400.1084,51.2212 L397.9584,44.1942 L384.7864,44.1942 L382.6354,51.2212 C382.3584,52.1302 381.5194,52.7502 380.5704,52.7502 L374.6244,52.7502 C373.1464,52.7502 372.1044,51.2992 372.5774,49.8982 L372.5774,49.8982 Z" id="Fill-10" fill="#373C42"></path>
                <path d="M447.2998,13.7045 L434.3758,51.2915 C434.0758,52.1645 433.2548,52.7495 432.3328,52.7495 L424.4388,52.7495 C423.5168,52.7495 422.6958,52.1645 422.3958,51.2915 L409.4708,13.7045 C408.9878,12.3015 410.0298,10.8415 411.5138,10.8415 L417.8308,10.8415 C418.7708,10.8415 419.6018,11.4475 419.8888,12.3415 L428.5268,39.2405 L437.1638,12.3415 C437.4508,11.4475 438.2818,10.8415 439.2208,10.8415 L445.2568,10.8415 C446.7398,10.8415 447.7818,12.3015 447.2998,13.7045" id="Fill-12" fill="#373C42"></path>
                <path d="M452.1679,50.5893 L452.1679,13.0023 C452.1679,11.8083 453.1359,10.8413 454.3279,10.8413 L478.3509,10.8413 C479.5439,10.8413 480.5109,11.8083 480.5109,13.0023 L480.5109,16.6733 C480.5109,17.8673 479.5439,18.8343 478.3509,18.8343 L462.6379,18.8343 L462.6379,26.1803 L476.9429,26.1803 C478.1369,26.1803 479.1039,27.1483 479.1039,28.3403 L479.1039,32.0133 C479.1039,33.2063 478.1369,34.1733 476.9429,34.1733 L462.6379,34.1733 L462.6379,44.7563 L478.3509,44.7563 C479.5439,44.7563 480.5109,45.7233 480.5109,46.9163 L480.5109,50.5893 C480.5109,51.7823 479.5439,52.7503 478.3509,52.7503 L454.3279,52.7503 C453.1359,52.7503 452.1679,51.7823 452.1679,50.5893" id="Fill-14" fill="#373C42"></path>
                <path d="M511.75,23.6753 C511.75,22.6243 511.548,21.7193 511.145,20.9593 C510.74,20.1993 510.07,19.6133 509.132,19.2003 C508.476,18.9193 507.743,18.7403 506.937,18.6653 C506.13,18.5913 505.126,18.5523 503.925,18.5523 L500.407,18.5523 L500.407,29.8393 L503.419,29.8393 C504.883,29.8393 506.125,29.7503 507.147,29.5723 C508.171,29.3943 509.038,29.0143 509.751,28.4313 C510.427,27.9063 510.929,27.2783 511.258,26.5473 C511.586,25.8143 511.75,24.8583 511.75,23.6753 M524.228,52.7503 L516.931,52.7503 C516.255,52.7503 515.619,52.4343 515.21,51.8973 L504.179,37.3823 L500.407,37.3823 L500.407,50.5893 C500.407,51.7823 499.439,52.7503 498.246,52.7503 L492.098,52.7503 C490.904,52.7503 489.938,51.7823 489.938,50.5893 L489.938,13.0023 C489.938,11.8083 490.904,10.8423 492.098,10.8423 L506.796,10.8423 C509.122,10.8423 511.148,10.9863 512.876,11.2773 C514.602,11.5683 516.196,12.1743 517.66,13.0923 C519.162,14.0493 520.353,15.2643 521.234,16.7373 C522.116,18.2113 522.558,20.0823 522.558,22.3523 C522.558,25.5613 521.835,28.1653 520.391,30.1623 C518.945,32.1603 517.013,33.7513 514.593,34.9343 L525.923,49.2493 C527.044,50.6653 526.035,52.7503 524.228,52.7503" id="Fill-16" fill="#373C42"></path>
                <path d="M134.4257,53.3828 L131.3297,53.3828 C130.8537,53.3828 130.4327,53.0708 130.2947,52.6138 L122.2237,25.8298 C121.8287,24.6098 121.3887,23.0708 120.9017,21.2138 C120.4127,19.3558 120.1587,18.2388 120.1407,17.8638 C119.7287,20.3408 119.0717,23.0528 118.1707,25.9978 L110.3497,52.6078 C110.2137,53.0668 109.7917,53.3828 109.3127,53.3828 L106.2227,53.3828 C105.7337,53.3828 105.3047,53.0538 105.1787,52.5808 L94.8047,13.5918 C94.6217,12.9058 95.1397,12.2338 95.8487,12.2338 L98.6717,12.2338 C99.1647,12.2338 99.5957,12.5688 99.7177,13.0468 L106.0117,37.6508 C106.9117,41.2158 107.5697,44.4428 107.9827,47.3318 C108.4887,43.8988 109.2387,40.5398 110.2347,37.2558 L117.3797,13.0088 C117.5147,12.5498 117.9367,12.2338 118.4157,12.2338 L121.8757,12.2338 C122.3507,12.2338 122.7697,12.5438 122.9077,12.9978 L130.4137,37.4818 C131.3157,40.3898 132.0737,43.6738 132.6937,47.3318 C133.0497,44.6678 133.7257,41.4218 134.7197,37.5928 L140.9867,13.0468 C141.1087,12.5688 141.5387,12.2338 142.0327,12.2338 L144.8527,12.2338 C145.5627,12.2338 146.0787,12.9068 145.8957,13.5928 L135.4687,52.5818 C135.3427,53.0538 134.9147,53.3828 134.4257,53.3828" id="Fill-19" fill="#373C42"></path>
                <path d="M185.1718,53.3828 L182.5478,53.3828 C181.9508,53.3828 181.4668,52.8998 181.4668,52.3028 L181.4668,34.0198 L159.7958,34.0198 L159.7958,52.3028 C159.7958,52.8998 159.3128,53.3828 158.7158,53.3828 L156.0908,53.3828 C155.4938,53.3828 155.0108,52.8998 155.0108,52.3028 L155.0108,13.3148 C155.0108,12.7178 155.4938,12.2338 156.0908,12.2338 L158.7158,12.2338 C159.3128,12.2338 159.7958,12.7178 159.7958,13.3148 L159.7958,29.7408 L181.4668,29.7408 L181.4668,13.3148 C181.4668,12.7178 181.9508,12.2338 182.5478,12.2338 L185.1718,12.2338 C185.7688,12.2338 186.2518,12.7178 186.2518,13.3148 L186.2518,52.3028 C186.2518,52.8998 185.7688,53.3828 185.1718,53.3828" id="Fill-21" fill="#373C42"></path>
                <path d="M199.8447,52.3027 L199.8447,13.3147 C199.8447,12.7177 200.3277,12.2337 200.9247,12.2337 L203.5487,12.2337 C204.1457,12.2337 204.6287,12.7177 204.6287,13.3147 L204.6287,52.3027 C204.6287,52.8997 204.1457,53.3827 203.5487,53.3827 L200.9247,53.3827 C200.3277,53.3827 199.8447,52.8997 199.8447,52.3027" id="Fill-23" fill="#373C42"></path>
                <path d="M229.8066,53.3828 L227.1826,53.3828 C226.5856,53.3828 226.1026,52.8998 226.1026,52.3028 L226.1026,16.4858 L214.1506,16.4858 C213.5536,16.4858 213.0706,16.0018 213.0706,15.4048 L213.0706,13.3148 C213.0706,12.7178 213.5536,12.2338 214.1506,12.2338 L242.8376,12.2338 C243.4346,12.2338 243.9176,12.7178 243.9176,13.3148 L243.9176,15.4048 C243.9176,16.0018 243.4346,16.4858 242.8376,16.4858 L230.8866,16.4858 L230.8866,52.3028 C230.8866,52.8998 230.4026,53.3828 229.8066,53.3828" id="Fill-25" fill="#373C42"></path>
                <path d="M274.2734,53.3828 L253.4964,53.3828 C252.8994,53.3828 252.4154,52.8998 252.4154,52.3028 L252.4154,13.3148 C252.4154,12.7178 252.8994,12.2338 253.4964,12.2338 L274.2734,12.2338 C274.8704,12.2338 275.3534,12.7178 275.3534,13.3148 L275.3534,15.4048 C275.3534,16.0018 274.8704,16.4858 274.2734,16.4858 L257.2004,16.4858 L257.2004,29.7408 L273.1754,29.7408 C273.7724,29.7408 274.2554,30.2248 274.2554,30.8208 L274.2554,32.8828 C274.2554,33.4788 273.7724,33.9628 273.1754,33.9628 L257.2004,33.9628 L257.2004,49.1058 L274.2734,49.1058 C274.8704,49.1058 275.3534,49.5888 275.3534,50.1858 L275.3534,52.3028 C275.3534,52.8998 274.8704,53.3828 274.2734,53.3828" id="Fill-27" fill="#373C42"></path>
            </g>
        </g>
    </g>
</svg>